<mxfile host="Electron" modified="2023-08-24T09:38:26.240Z" agent="Mozilla/5.0 (Windows NT 10.0; Win64; x64) AppleWebKit/537.36 (KHTML, like Gecko) draw.io/21.3.7 Chrome/112.0.5615.204 Electron/24.5.0 Safari/537.36" etag="oYRwmrfS4sJlpGY6kiOU" version="21.3.7" type="device">
  <diagram name="Page-1" id="ZWSDeJOEaIr2L8Me2n5w">
    <mxGraphModel dx="1668" dy="2074" grid="1" gridSize="10" guides="1" tooltips="1" connect="1" arrows="1" fold="1" page="1" pageScale="1" pageWidth="850" pageHeight="1100" math="0" shadow="0">
      <root>
        <mxCell id="0" />
        <mxCell id="1" parent="0" />
        <mxCell id="EveCIlQHcC4GdwJnfHoP-5" value="" style="rounded=0;whiteSpace=wrap;html=1;fillColor=#f9f7ed;strokeColor=#36393d;" parent="1" vertex="1">
          <mxGeometry x="60.379999999999995" y="-1070" width="695.01" height="57.5" as="geometry" />
        </mxCell>
        <mxCell id="cQSAukFgM9H1RLstrKh2-175" value="&lt;font size=&quot;1&quot; style=&quot;&quot;&gt;&lt;b style=&quot;font-size: 15px;&quot;&gt;Controller&lt;/b&gt;&lt;/font&gt;" style="rounded=0;whiteSpace=wrap;html=1;fillColor=#dae8fc;strokeColor=#6c8ebf;" parent="1" vertex="1">
          <mxGeometry x="70.23999999999995" y="-1061.25" width="90" height="40" as="geometry" />
        </mxCell>
        <mxCell id="cQSAukFgM9H1RLstrKh2-176" value="&lt;font style=&quot;border-color: var(--border-color);&quot;&gt;&lt;span style=&quot;font-size: 16px;&quot;&gt;&lt;b&gt;Interface&lt;/b&gt;&lt;/span&gt;&lt;br&gt;&lt;/font&gt;" style="shape=dataStorage;whiteSpace=wrap;html=1;fixedSize=1;fillColor=#d0cee2;strokeColor=#56517e;" parent="1" vertex="1">
          <mxGeometry x="425.3899999999999" y="-1061.25" width="141.13" height="40" as="geometry" />
        </mxCell>
        <mxCell id="cQSAukFgM9H1RLstrKh2-204" value="&lt;font style=&quot;&quot;&gt;&lt;b style=&quot;&quot;&gt;&lt;font style=&quot;font-size: 15px;&quot;&gt;Repository&lt;/font&gt;&lt;/b&gt;&lt;br&gt;&lt;/font&gt;" style="rounded=1;whiteSpace=wrap;html=1;fillColor=#bac8d3;strokeColor=#23445d;verticalAlign=middle;" parent="1" vertex="1">
          <mxGeometry x="304.1199999999999" y="-1061.25" width="102.54" height="40" as="geometry" />
        </mxCell>
        <mxCell id="EveCIlQHcC4GdwJnfHoP-3" value="&lt;font size=&quot;1&quot; style=&quot;&quot;&gt;&lt;b style=&quot;font-size: 15px;&quot;&gt;Model&lt;/b&gt;&lt;/font&gt;" style="shape=hexagon;perimeter=hexagonPerimeter2;whiteSpace=wrap;html=1;fixedSize=1;fillColor=#f5f5f5;strokeColor=#666666;gradientColor=#b3b3b3;" parent="1" vertex="1">
          <mxGeometry x="175.39" y="-1061.25" width="111.25" height="40" as="geometry" />
        </mxCell>
        <mxCell id="EveCIlQHcC4GdwJnfHoP-4" value="&lt;font style=&quot;font-size: 14px;&quot;&gt;&lt;b&gt;Entity Framework&lt;/b&gt;&lt;/font&gt;" style="shape=parallelogram;perimeter=parallelogramPerimeter;whiteSpace=wrap;html=1;fixedSize=1;fillColor=#cdeb8b;strokeColor=#36393d;" parent="1" vertex="1">
          <mxGeometry x="584.76" y="-1061.25" width="155.63" height="40" as="geometry" />
        </mxCell>
        <mxCell id="y0mzdwUopEgob06FSmXA-1" value="&lt;font style=&quot;&quot;&gt;&lt;b style=&quot;font-size: 15px;&quot;&gt;Film.cs&lt;/b&gt;&lt;br&gt;&lt;font style=&quot;font-size: 12px;&quot;&gt;properties&lt;/font&gt;&lt;br&gt;&lt;/font&gt;" style="shape=hexagon;perimeter=hexagonPerimeter2;whiteSpace=wrap;html=1;fixedSize=1;fillColor=#f5f5f5;strokeColor=#666666;gradientColor=#b3b3b3;" parent="1" vertex="1">
          <mxGeometry x="602.19" y="-805" width="120" height="50" as="geometry" />
        </mxCell>
        <mxCell id="y0mzdwUopEgob06FSmXA-7" style="edgeStyle=orthogonalEdgeStyle;rounded=0;orthogonalLoop=1;jettySize=auto;html=1;exitX=0.073;exitY=-0.002;exitDx=0;exitDy=0;entryX=0.123;entryY=1.01;entryDx=0;entryDy=0;entryPerimeter=0;exitPerimeter=0;" parent="1" source="y0mzdwUopEgob06FSmXA-3" target="y0mzdwUopEgob06FSmXA-5" edge="1">
          <mxGeometry relative="1" as="geometry" />
        </mxCell>
        <mxCell id="y0mzdwUopEgob06FSmXA-17" style="edgeStyle=orthogonalEdgeStyle;rounded=0;orthogonalLoop=1;jettySize=auto;html=1;exitX=1;exitY=0.5;exitDx=0;exitDy=0;entryX=0;entryY=0.5;entryDx=0;entryDy=0;dashed=1;" parent="1" source="y0mzdwUopEgob06FSmXA-3" target="y0mzdwUopEgob06FSmXA-1" edge="1">
          <mxGeometry relative="1" as="geometry">
            <Array as="points">
              <mxPoint x="572.19" y="-700" />
              <mxPoint x="572.19" y="-780" />
            </Array>
          </mxGeometry>
        </mxCell>
        <mxCell id="I5pZN4x-k-ylW7PQd3k_-1" style="edgeStyle=orthogonalEdgeStyle;rounded=0;orthogonalLoop=1;jettySize=auto;html=1;exitX=0;exitY=0.25;exitDx=0;exitDy=0;entryX=1;entryY=0.5;entryDx=0;entryDy=0;dashed=1;" edge="1" parent="1" source="y0mzdwUopEgob06FSmXA-3" target="y0mzdwUopEgob06FSmXA-14">
          <mxGeometry relative="1" as="geometry">
            <Array as="points">
              <mxPoint x="259" y="-717" />
              <mxPoint x="259" y="-825" />
            </Array>
          </mxGeometry>
        </mxCell>
        <mxCell id="I5pZN4x-k-ylW7PQd3k_-2" style="edgeStyle=orthogonalEdgeStyle;rounded=0;orthogonalLoop=1;jettySize=auto;html=1;exitX=0;exitY=0.75;exitDx=0;exitDy=0;entryX=1;entryY=0.5;entryDx=0;entryDy=0;dashed=1;" edge="1" parent="1" source="y0mzdwUopEgob06FSmXA-3" target="y0mzdwUopEgob06FSmXA-13">
          <mxGeometry relative="1" as="geometry" />
        </mxCell>
        <mxCell id="y0mzdwUopEgob06FSmXA-3" value="&lt;b style=&quot;border-color: var(--border-color);&quot;&gt;FilmController.cs&lt;/b&gt;&lt;font style=&quot;&quot;&gt;&lt;br&gt;IActionResult (methods from interface)&lt;br&gt;&lt;/font&gt;" style="rounded=0;whiteSpace=wrap;html=1;fillColor=#cce5ff;strokeColor=#36393d;fontSize=14;verticalAlign=top;" parent="1" vertex="1">
          <mxGeometry x="276.7600000000002" y="-735" width="240" height="70" as="geometry" />
        </mxCell>
        <mxCell id="y0mzdwUopEgob06FSmXA-4" style="edgeStyle=orthogonalEdgeStyle;rounded=0;orthogonalLoop=1;jettySize=auto;html=1;exitX=0.541;exitY=0.995;exitDx=0;exitDy=0;entryX=0.5;entryY=0;entryDx=0;entryDy=0;shape=link;exitPerimeter=0;" parent="1" source="y0mzdwUopEgob06FSmXA-5" target="y0mzdwUopEgob06FSmXA-6" edge="1">
          <mxGeometry relative="1" as="geometry" />
        </mxCell>
        <mxCell id="y0mzdwUopEgob06FSmXA-5" value="&lt;font style=&quot;border-color: var(--border-color); font-size: 16px;&quot;&gt;&lt;b style=&quot;border-color: var(--border-color);&quot;&gt;interface&lt;/b&gt;&amp;nbsp;&lt;font style=&quot;border-color: var(--border-color);&quot; color=&quot;#ff3333&quot;&gt;&lt;b style=&quot;border-color: var(--border-color);&quot;&gt;IFilmRepository&lt;/b&gt;&lt;/font&gt;&lt;/font&gt;&lt;br style=&quot;border-color: var(--border-color); font-size: 14px;&quot;&gt;&lt;font style=&quot;border-color: var(--border-color);&quot;&gt;GetFilms(),&amp;nbsp;GetFilm(int filmId),&amp;nbsp;GetFilmRating(int filmId)&lt;br&gt;FilmExists(int filmId), Create,Update,Delete,Save&lt;br&gt;&lt;/font&gt;" style="shape=dataStorage;whiteSpace=wrap;html=1;fixedSize=1;fillColor=#d0cee2;strokeColor=#56517e;" parent="1" vertex="1">
          <mxGeometry x="252.19000000000005" y="-910" width="341.38" height="70" as="geometry" />
        </mxCell>
        <mxCell id="y0mzdwUopEgob06FSmXA-6" value="&lt;font style=&quot;&quot;&gt;&lt;b style=&quot;&quot;&gt;&lt;font style=&quot;font-size: 16px;&quot;&gt;Repository&lt;/font&gt;&lt;/b&gt;&lt;br&gt;&lt;font style=&quot;font-size: 13px;&quot;&gt;FilmRepository.cs&lt;br&gt;&lt;/font&gt;(implementation&amp;nbsp;methods from interface)&lt;br&gt;&lt;/font&gt;" style="rounded=1;whiteSpace=wrap;html=1;fillColor=#bac8d3;strokeColor=#23445d;verticalAlign=top;" parent="1" vertex="1">
          <mxGeometry x="322.19000000000017" y="-825" width="229.13" height="70" as="geometry" />
        </mxCell>
        <mxCell id="y0mzdwUopEgob06FSmXA-12" style="edgeStyle=orthogonalEdgeStyle;rounded=0;orthogonalLoop=1;jettySize=auto;html=1;exitX=0.5;exitY=1;exitDx=0;exitDy=0;entryX=1;entryY=0.5;entryDx=0;entryDy=0;dashed=1;" parent="1" source="y0mzdwUopEgob06FSmXA-8" target="y0mzdwUopEgob06FSmXA-1" edge="1">
          <mxGeometry relative="1" as="geometry" />
        </mxCell>
        <mxCell id="y0mzdwUopEgob06FSmXA-8" value="&lt;font style=&quot;font-size: 13px;&quot;&gt;&lt;b&gt;&lt;font style=&quot;font-size: 14px;&quot;&gt;Data&lt;/font&gt;&lt;br&gt;ApiDbContext.cs&lt;br&gt;&lt;/b&gt;DbSet&amp;lt;Film&amp;gt; Films&lt;br&gt;&lt;/font&gt;" style="shape=parallelogram;perimeter=parallelogramPerimeter;whiteSpace=wrap;html=1;fixedSize=1;fillColor=#cdeb8b;strokeColor=#36393d;verticalAlign=top;" parent="1" vertex="1">
          <mxGeometry x="646.9499999999998" y="-900" width="183.44" height="60" as="geometry" />
        </mxCell>
        <mxCell id="y0mzdwUopEgob06FSmXA-9" style="rounded=0;orthogonalLoop=1;jettySize=auto;html=1;exitX=1;exitY=0.326;exitDx=0;exitDy=0;entryX=0.037;entryY=0.599;entryDx=0;entryDy=0;dashed=1;strokeColor=#CDEB8B;strokeWidth=3;exitPerimeter=0;entryPerimeter=0;" parent="1" source="y0mzdwUopEgob06FSmXA-6" target="y0mzdwUopEgob06FSmXA-8" edge="1">
          <mxGeometry relative="1" as="geometry">
            <mxPoint x="551.32" y="-798" as="sourcePoint" />
            <mxPoint x="803.3200000000002" y="-870" as="targetPoint" />
          </mxGeometry>
        </mxCell>
        <mxCell id="y0mzdwUopEgob06FSmXA-10" value="&lt;b&gt;&lt;font style=&quot;font-size: 20px;&quot;&gt;Films&lt;/font&gt;&lt;/b&gt;" style="shape=cylinder3;whiteSpace=wrap;html=1;boundedLbl=1;backgroundOutline=1;size=15;fillColor=#e1d5e7;strokeColor=#9673a6;" parent="1" vertex="1">
          <mxGeometry x="689" y="-1000" width="72.2" height="70" as="geometry" />
        </mxCell>
        <mxCell id="y0mzdwUopEgob06FSmXA-11" style="rounded=0;orthogonalLoop=1;jettySize=auto;html=1;exitX=0.314;exitY=-0.027;exitDx=0;exitDy=0;entryX=0.36;entryY=0.998;entryDx=0;entryDy=0;entryPerimeter=0;dashed=1;strokeWidth=3;strokeColor=#9673A6;exitPerimeter=0;" parent="1" source="y0mzdwUopEgob06FSmXA-8" target="y0mzdwUopEgob06FSmXA-10" edge="1">
          <mxGeometry relative="1" as="geometry">
            <mxPoint x="760.0500000000002" y="-978.75" as="sourcePoint" />
            <mxPoint x="909.4899999999998" y="-1148.75" as="targetPoint" />
          </mxGeometry>
        </mxCell>
        <mxCell id="y0mzdwUopEgob06FSmXA-13" value="&lt;b&gt;DTO(Data Transfer objects)&lt;/b&gt;&lt;br&gt;FilmDto.cs&lt;br&gt;part of properties" style="shape=trapezoid;perimeter=trapezoidPerimeter;whiteSpace=wrap;html=1;fixedSize=1;verticalAlign=top;fillColor=#eeeeee;strokeColor=#36393d;" parent="1" vertex="1">
          <mxGeometry x="19.000000000000057" y="-775" width="191.38" height="50" as="geometry" />
        </mxCell>
        <mxCell id="y0mzdwUopEgob06FSmXA-18" style="edgeStyle=orthogonalEdgeStyle;rounded=0;orthogonalLoop=1;jettySize=auto;html=1;exitX=0.488;exitY=1.004;exitDx=0;exitDy=0;entryX=0.5;entryY=0;entryDx=0;entryDy=0;exitPerimeter=0;dashed=1;" parent="1" source="y0mzdwUopEgob06FSmXA-14" target="y0mzdwUopEgob06FSmXA-13" edge="1">
          <mxGeometry relative="1" as="geometry" />
        </mxCell>
        <mxCell id="y0mzdwUopEgob06FSmXA-14" value="&lt;font style=&quot;&quot;&gt;&lt;b style=&quot;&quot;&gt;&lt;font style=&quot;font-size: 16px;&quot;&gt;Helper&lt;/font&gt;&lt;/b&gt;&lt;br&gt;&lt;font style=&quot;font-size: 13px;&quot;&gt;MappingProfiles.cs&lt;br&gt;&lt;/font&gt;CreateMap&amp;lt;Film, FilmDto&amp;gt;();...&lt;br&gt;&lt;/font&gt;" style="rounded=1;whiteSpace=wrap;html=1;fillColor=#fad7ac;strokeColor=#b46504;verticalAlign=top;" parent="1" vertex="1">
          <mxGeometry x="29.540000000000077" y="-855" width="174.58" height="60" as="geometry" />
        </mxCell>
      </root>
    </mxGraphModel>
  </diagram>
</mxfile>
